<mxfile host="app.diagrams.net" agent="Mozilla/5.0 (Windows NT 10.0; Win64; x64) AppleWebKit/537.36 (KHTML, like Gecko) Chrome/136.0.0.0 Safari/537.36 Edg/136.0.0.0" version="27.0.6">
  <diagram name="第 1 页" id="72KHQZ4994eIaw_LecZP">
    <mxGraphModel dx="648" dy="1311" grid="0" gridSize="10" guides="1" tooltips="1" connect="1" arrows="1" fold="1" page="0" pageScale="1" pageWidth="827" pageHeight="1169" math="0" shadow="0">
      <root>
        <mxCell id="0" />
        <mxCell id="1" parent="0" />
        <mxCell id="BP2cJoVYEwKnO9dS9naX-1" value="主程序" style="text;html=1;align=center;verticalAlign=middle;whiteSpace=wrap;rounded=0;" vertex="1" parent="1">
          <mxGeometry x="70" y="-82" width="60" height="30" as="geometry" />
        </mxCell>
        <mxCell id="BP2cJoVYEwKnO9dS9naX-7" style="edgeStyle=none;curved=1;rounded=0;orthogonalLoop=1;jettySize=auto;html=1;exitX=0.75;exitY=0;exitDx=0;exitDy=0;entryX=0;entryY=0;entryDx=0;entryDy=0;fontSize=12;startSize=8;endSize=8;dashed=1;" edge="1" parent="1" source="BP2cJoVYEwKnO9dS9naX-2" target="BP2cJoVYEwKnO9dS9naX-3">
          <mxGeometry relative="1" as="geometry" />
        </mxCell>
        <mxCell id="BP2cJoVYEwKnO9dS9naX-2" value="CALL&lt;div&gt;MUL&lt;/div&gt;" style="text;html=1;align=center;verticalAlign=middle;whiteSpace=wrap;rounded=0;" vertex="1" parent="1">
          <mxGeometry x="77" y="19" width="60" height="30" as="geometry" />
        </mxCell>
        <mxCell id="BP2cJoVYEwKnO9dS9naX-8" style="edgeStyle=none;curved=1;rounded=0;orthogonalLoop=1;jettySize=auto;html=1;exitX=1;exitY=0.5;exitDx=0;exitDy=0;entryX=0;entryY=0;entryDx=0;entryDy=0;fontSize=12;startSize=8;endSize=8;dashed=1;" edge="1" parent="1" source="BP2cJoVYEwKnO9dS9naX-3" target="BP2cJoVYEwKnO9dS9naX-5">
          <mxGeometry relative="1" as="geometry" />
        </mxCell>
        <mxCell id="BP2cJoVYEwKnO9dS9naX-3" value="&lt;div&gt;&lt;br&gt;&lt;/div&gt;&lt;div&gt;&lt;br&gt;&lt;/div&gt;&lt;div&gt;&lt;br&gt;&lt;/div&gt;CALL&lt;div&gt;SUB&lt;/div&gt;&lt;div&gt;&lt;br&gt;&lt;/div&gt;&lt;div&gt;&lt;br&gt;&lt;/div&gt;&lt;div&gt;Return&lt;/div&gt;" style="rounded=0;whiteSpace=wrap;html=1;dashed=1;" vertex="1" parent="1">
          <mxGeometry x="173" y="-37" width="88" height="142" as="geometry" />
        </mxCell>
        <mxCell id="BP2cJoVYEwKnO9dS9naX-4" value="子程序1" style="text;html=1;align=center;verticalAlign=middle;whiteSpace=wrap;rounded=0;" vertex="1" parent="1">
          <mxGeometry x="187" y="-82" width="60" height="30" as="geometry" />
        </mxCell>
        <mxCell id="BP2cJoVYEwKnO9dS9naX-5" value="&lt;div&gt;&lt;br&gt;&lt;/div&gt;&lt;div&gt;&lt;br&gt;&lt;/div&gt;&lt;div&gt;&lt;br&gt;&lt;/div&gt;CALL&lt;div&gt;ADD&lt;/div&gt;&lt;div&gt;&lt;br&gt;&lt;/div&gt;&lt;div&gt;&lt;br&gt;&lt;/div&gt;&lt;div&gt;Return&lt;/div&gt;" style="rounded=0;whiteSpace=wrap;html=1;dashed=1;" vertex="1" parent="1">
          <mxGeometry x="310" y="-37" width="88" height="142" as="geometry" />
        </mxCell>
        <mxCell id="BP2cJoVYEwKnO9dS9naX-6" value="子程序2" style="text;html=1;align=center;verticalAlign=middle;whiteSpace=wrap;rounded=0;" vertex="1" parent="1">
          <mxGeometry x="324" y="-82" width="60" height="30" as="geometry" />
        </mxCell>
        <mxCell id="BP2cJoVYEwKnO9dS9naX-12" style="edgeStyle=none;curved=1;rounded=0;orthogonalLoop=1;jettySize=auto;html=1;exitX=0;exitY=0.852;exitDx=0;exitDy=0;fontSize=12;startSize=8;endSize=8;exitPerimeter=0;entryX=0.977;entryY=0.556;entryDx=0;entryDy=0;entryPerimeter=0;dashed=1;" edge="1" parent="1" source="BP2cJoVYEwKnO9dS9naX-9" target="BP2cJoVYEwKnO9dS9naX-5">
          <mxGeometry relative="1" as="geometry">
            <mxPoint x="408" y="57" as="targetPoint" />
          </mxGeometry>
        </mxCell>
        <mxCell id="BP2cJoVYEwKnO9dS9naX-9" value="&lt;div&gt;&lt;br&gt;&lt;/div&gt;&lt;div&gt;&lt;br&gt;&lt;/div&gt;&lt;div&gt;&lt;br&gt;&lt;/div&gt;&lt;div&gt;&lt;br&gt;&lt;/div&gt;&lt;div&gt;&lt;br&gt;&lt;/div&gt;&lt;div&gt;&lt;br&gt;&lt;/div&gt;&lt;div&gt;&lt;br&gt;&lt;/div&gt;&lt;div&gt;Return&lt;/div&gt;" style="rounded=0;whiteSpace=wrap;html=1;dashed=1;" vertex="1" parent="1">
          <mxGeometry x="455" y="-37" width="88" height="142" as="geometry" />
        </mxCell>
        <mxCell id="BP2cJoVYEwKnO9dS9naX-10" value="子程序3" style="text;html=1;align=center;verticalAlign=middle;whiteSpace=wrap;rounded=0;" vertex="1" parent="1">
          <mxGeometry x="469" y="-82" width="60" height="30" as="geometry" />
        </mxCell>
        <mxCell id="BP2cJoVYEwKnO9dS9naX-11" style="edgeStyle=none;curved=1;rounded=0;orthogonalLoop=1;jettySize=auto;html=1;exitX=1.011;exitY=0.423;exitDx=0;exitDy=0;entryX=0.08;entryY=0.014;entryDx=0;entryDy=0;entryPerimeter=0;fontSize=12;startSize=8;endSize=8;exitPerimeter=0;dashed=1;" edge="1" parent="1" source="BP2cJoVYEwKnO9dS9naX-5" target="BP2cJoVYEwKnO9dS9naX-9">
          <mxGeometry relative="1" as="geometry" />
        </mxCell>
      </root>
    </mxGraphModel>
  </diagram>
</mxfile>
